<?xml version="1.0" standalone="no"?>
<!DOCTYPE svg PUBLIC "-//W3C//DTD SVG 20010904//EN"
 "http://www.w3.org/TR/2001/REC-SVG-20010904/DTD/svg10.dtd">
<svg version="1.0" xmlns="http://www.w3.org/2000/svg"
 width="70.000000pt" height="70.000000pt" viewBox="0 0 70.000000 70.000000"
 preserveAspectRatio="xMidYMid meet">
<metadata>
Created by potrace 1.11, written by Peter Selinger 2001-2013
</metadata>
<g transform="translate(0.000000,70.000000) scale(0.100000,-0.100000)"
fill="#000000" stroke="none">
<path d="M0 396 c0 -282 1 -305 18 -309 16 -4 16 -5 0 -6 -14 -1 -18 -10 -18
-41 l0 -40 350 0 350 0 0 350 0 350 -350 0 -350 0 0 -304z m315 44 c-3 -6 -13
-10 -22 -10 -9 0 -31 -5 -49 -12 -24 -8 -39 -9 -56 -1 l-23 11 25 10 c34 13
133 15 125 2z m-211 -24 c-4 -10 5 -16 27 -21 27 -6 30 -9 18 -19 -20 -14 -23
-90 -4 -82 9 3 12 0 8 -10 -3 -7 0 -14 7 -14 6 0 8 -5 5 -10 -3 -6 1 -13 9
-16 13 -5 14 -10 2 -37 -7 -18 -11 -38 -9 -45 4 -9 -1 -10 -20 -3 -14 5 -28 7
-31 4 -3 -4 -6 -1 -6 6 0 7 -4 10 -9 7 -5 -3 -11 8 -13 24 -3 16 -1 31 4 32 4
2 3 21 -3 43 -14 51 -3 155 16 155 3 0 2 -6 -1 -14z m325 -60 c11 -17 22 -52
26 -78 6 -40 5 -48 -9 -48 -10 0 -16 9 -16 25 0 25 -20 41 -72 56 -25 7 -29 5
-24 -7 4 -11 0 -15 -16 -12 -15 2 -29 16 -39 38 -18 37 -15 61 4 36 7 -9 26
-19 44 -22 29 -6 31 -4 29 20 -2 17 2 26 10 26 8 0 14 5 14 11 0 17 26 -7 49
-45z m211 -80 c-14 -7 -79 -32 -145 -54 -169 -57 -164 -56 -135 -37 l25 16
-25 -6 c-24 -6 -24 -5 -6 9 13 10 24 12 36 6 11 -6 52 4 136 35 121 45 159 55
114 31z m-283 -21 c8 -23 -4 -30 -21 -12 -8 8 -12 17 -9 21 11 11 23 7 30 -9z
m61 -97 c-2 -17 -11 -24 -32 -26 -20 -3 -26 0 -20 9 5 9 2 10 -9 6 -31 -12
-18 3 16 17 44 20 49 19 45 -6z m-187 -59 c-13 -11 -27 -17 -30 -13 -7 7 28
34 43 34 6 -1 0 -10 -13 -21z"/>
</g>
</svg>
